<mxfile host="app.diagrams.net" modified="2023-07-04T12:34:34.094Z" agent="Mozilla/5.0 (Windows NT 10.0; Win64; x64; rv:109.0) Gecko/20100101 Firefox/114.0" etag="opPDTgUNp7mhQsoE74ZM" version="21.5.2" type="github">
  <diagram name="PÃ¡gina-1" id="trgVyaGOAGARNnxK2m3R">
    <mxGraphModel dx="880" dy="442" grid="1" gridSize="10" guides="1" tooltips="1" connect="1" arrows="1" fold="1" page="1" pageScale="1" pageWidth="827" pageHeight="1169" math="0" shadow="0">
      <root>
        <mxCell id="0" />
        <mxCell id="1" parent="0" />
        <mxCell id="4S8blp3XQvQkkuksVJ6E-1" value="Produto" style="swimlane;fontStyle=1;align=center;verticalAlign=top;childLayout=stackLayout;horizontal=1;startSize=26;horizontalStack=0;resizeParent=1;resizeParentMax=0;resizeLast=0;collapsible=1;marginBottom=0;whiteSpace=wrap;html=1;" vertex="1" parent="1">
          <mxGeometry x="210" y="100" width="270" height="260" as="geometry" />
        </mxCell>
        <mxCell id="4S8blp3XQvQkkuksVJ6E-2" value="&lt;div&gt;- codProduto: long&lt;/div&gt;&lt;div&gt;- nomeProduto: String&lt;/div&gt;&lt;div&gt;- infoNutri: String&lt;/div&gt;&lt;div&gt;- fabricado: boolean&lt;/div&gt;&lt;div&gt;- distribuido: boolean&lt;/div&gt;&lt;div&gt;- produtor: Produtor&lt;/div&gt;&lt;div&gt;- estoque: int&lt;br&gt;&lt;/div&gt;" style="text;strokeColor=none;fillColor=none;align=left;verticalAlign=top;spacingLeft=4;spacingRight=4;overflow=hidden;rotatable=0;points=[[0,0.5],[1,0.5]];portConstraint=eastwest;whiteSpace=wrap;html=1;" vertex="1" parent="4S8blp3XQvQkkuksVJ6E-1">
          <mxGeometry y="26" width="270" height="114" as="geometry" />
        </mxCell>
        <mxCell id="4S8blp3XQvQkkuksVJ6E-3" value="" style="line;strokeWidth=1;fillColor=none;align=left;verticalAlign=middle;spacingTop=-1;spacingLeft=3;spacingRight=3;rotatable=0;labelPosition=right;points=[];portConstraint=eastwest;strokeColor=inherit;" vertex="1" parent="4S8blp3XQvQkkuksVJ6E-1">
          <mxGeometry y="140" width="270" height="8" as="geometry" />
        </mxCell>
        <mxCell id="4S8blp3XQvQkkuksVJ6E-4" value="+ getCodProduto(): " style="text;strokeColor=none;fillColor=none;align=left;verticalAlign=top;spacingLeft=4;spacingRight=4;overflow=hidden;rotatable=0;points=[[0,0.5],[1,0.5]];portConstraint=eastwest;whiteSpace=wrap;html=1;" vertex="1" parent="4S8blp3XQvQkkuksVJ6E-1">
          <mxGeometry y="148" width="270" height="112" as="geometry" />
        </mxCell>
      </root>
    </mxGraphModel>
  </diagram>
</mxfile>
